<?xml version="1.0" encoding="UTF-8" standalone="no"?>
<!DOCTYPE svg PUBLIC "-//W3C//DTD SVG 1.1//EN"
 "http://www.w3.org/Graphics/SVG/1.1/DTD/svg11.dtd">
<!-- Generated by graphviz version 2.40.1 (20161225.0304)
 -->
<!-- Title: controllers_diagram Pages: 1 -->
<svg width="1354pt" height="562pt"
 viewBox="0.00 0.00 1354.00 562.00" xmlns="http://www.w3.org/2000/svg" xmlns:xlink="http://www.w3.org/1999/xlink">
<g id="graph0" class="graph" transform="scale(1 1) rotate(0) translate(4 558)">
<title>controllers_diagram</title>
<polygon fill="transparent" stroke="transparent" points="-4,4 -4,-558 1350,-558 1350,4 -4,4"/>
<!-- ApplicationController -->
<g id="node1" class="node">
<title>ApplicationController</title>
<path fill="none" stroke="#000000" d="M622,-385.5C622,-385.5 770,-385.5 770,-385.5 776,-385.5 782,-391.5 782,-397.5 782,-397.5 782,-541.5 782,-541.5 782,-547.5 776,-553.5 770,-553.5 770,-553.5 622,-553.5 622,-553.5 616,-553.5 610,-547.5 610,-541.5 610,-541.5 610,-397.5 610,-397.5 610,-391.5 616,-385.5 622,-385.5"/>
<text text-anchor="middle" x="696" y="-538.3" font-family="Times,serif" font-size="14.00" fill="#000000">ApplicationController</text>
<polyline fill="none" stroke="#000000" points="610,-530.5 782,-530.5 "/>
<text text-anchor="start" x="618" y="-515.3" font-family="Times,serif" font-size="14.00" fill="#000000">all_categories</text>
<text text-anchor="start" x="618" y="-500.3" font-family="Times,serif" font-size="14.00" fill="#000000">cat_count</text>
<text text-anchor="start" x="618" y="-485.3" font-family="Times,serif" font-size="14.00" fill="#000000">current_user</text>
<text text-anchor="start" x="618" y="-470.3" font-family="Times,serif" font-size="14.00" fill="#000000">is_in_cart</text>
<text text-anchor="start" x="618" y="-455.3" font-family="Times,serif" font-size="14.00" fill="#000000">is_in_wishlist</text>
<text text-anchor="start" x="618" y="-440.3" font-family="Times,serif" font-size="14.00" fill="#000000">show_products</text>
<polyline fill="none" stroke="#000000" points="610,-432.5 782,-432.5 "/>
<polyline fill="none" stroke="#000000" points="610,-408.5 782,-408.5 "/>
<text text-anchor="start" x="618" y="-393.3" font-family="Times,serif" font-size="14.00" fill="#000000">_layout</text>
</g>
<!-- CartController -->
<g id="node2" class="node">
<title>CartController</title>
<path fill="none" stroke="#000000" d="M12,-68C12,-68 178,-68 178,-68 184,-68 190,-74 190,-80 190,-80 190,-269 190,-269 190,-275 184,-281 178,-281 178,-281 12,-281 12,-281 6,-281 0,-275 0,-269 0,-269 0,-80 0,-80 0,-74 6,-68 12,-68"/>
<text text-anchor="middle" x="95" y="-265.8" font-family="Times,serif" font-size="14.00" fill="#000000">CartController</text>
<polyline fill="none" stroke="#000000" points="0,-258 190,-258 "/>
<text text-anchor="start" x="8" y="-242.8" font-family="Times,serif" font-size="14.00" fill="#000000">add</text>
<text text-anchor="start" x="8" y="-227.8" font-family="Times,serif" font-size="14.00" fill="#000000">change_quantity</text>
<text text-anchor="start" x="8" y="-212.8" font-family="Times,serif" font-size="14.00" fill="#000000">create</text>
<text text-anchor="start" x="8" y="-197.8" font-family="Times,serif" font-size="14.00" fill="#000000">create_addr</text>
<text text-anchor="start" x="8" y="-182.8" font-family="Times,serif" font-size="14.00" fill="#000000">create_ordered_product</text>
<text text-anchor="start" x="8" y="-167.8" font-family="Times,serif" font-size="14.00" fill="#000000">delete_cart</text>
<text text-anchor="start" x="8" y="-152.8" font-family="Times,serif" font-size="14.00" fill="#000000">index</text>
<text text-anchor="start" x="8" y="-137.8" font-family="Times,serif" font-size="14.00" fill="#000000">new</text>
<polyline fill="none" stroke="#000000" points="0,-130 190,-130 "/>
<polyline fill="none" stroke="#000000" points="0,-106 190,-106 "/>
<text text-anchor="start" x="8" y="-90.8" font-family="Times,serif" font-size="14.00" fill="#000000">_layout</text>
<text text-anchor="start" x="8" y="-75.8" font-family="Times,serif" font-size="14.00" fill="#000000">get_carts</text>
</g>
<!-- ApplicationController&#45;&gt;CartController -->
<g id="edge1" class="edge">
<title>ApplicationController&#45;&gt;CartController</title>
<path fill="none" stroke="#000000" d="M609.9279,-456.8555C485.6393,-437.2426 263.7037,-396.7335 199,-349 175.1605,-331.413 155.7684,-306.5798 140.4718,-281.1491"/>
</g>
<!-- CategoriesController -->
<g id="node3" class="node">
<title>CategoriesController</title>
<path fill="none" stroke="#000000" d="M220,-128C220,-128 364,-128 364,-128 370,-128 376,-134 376,-140 376,-140 376,-209 376,-209 376,-215 370,-221 364,-221 364,-221 220,-221 220,-221 214,-221 208,-215 208,-209 208,-209 208,-140 208,-140 208,-134 214,-128 220,-128"/>
<text text-anchor="middle" x="292" y="-205.8" font-family="Times,serif" font-size="14.00" fill="#000000">CategoriesController</text>
<polyline fill="none" stroke="#000000" points="208,-198 376,-198 "/>
<text text-anchor="start" x="216" y="-182.8" font-family="Times,serif" font-size="14.00" fill="#000000">show</text>
<polyline fill="none" stroke="#000000" points="208,-175 376,-175 "/>
<polyline fill="none" stroke="#000000" points="208,-151 376,-151 "/>
<text text-anchor="start" x="216" y="-135.8" font-family="Times,serif" font-size="14.00" fill="#000000">_layout</text>
</g>
<!-- ApplicationController&#45;&gt;CategoriesController -->
<g id="edge2" class="edge">
<title>ApplicationController&#45;&gt;CategoriesController</title>
<path fill="none" stroke="#000000" d="M609.8528,-453.363C542.0975,-436.9269 448.7978,-405.5667 385,-349 346.2137,-314.6099 320.8269,-260.0781 306.5268,-221.1303"/>
</g>
<!-- HomeController -->
<g id="node4" class="node">
<title>HomeController</title>
<path fill="none" stroke="#000000" d="M406.5,-120.5C406.5,-120.5 515.5,-120.5 515.5,-120.5 521.5,-120.5 527.5,-126.5 527.5,-132.5 527.5,-132.5 527.5,-216.5 527.5,-216.5 527.5,-222.5 521.5,-228.5 515.5,-228.5 515.5,-228.5 406.5,-228.5 406.5,-228.5 400.5,-228.5 394.5,-222.5 394.5,-216.5 394.5,-216.5 394.5,-132.5 394.5,-132.5 394.5,-126.5 400.5,-120.5 406.5,-120.5"/>
<text text-anchor="middle" x="461" y="-213.3" font-family="Times,serif" font-size="14.00" fill="#000000">HomeController</text>
<polyline fill="none" stroke="#000000" points="394.5,-205.5 527.5,-205.5 "/>
<text text-anchor="start" x="402.5" y="-190.3" font-family="Times,serif" font-size="14.00" fill="#000000">contact</text>
<text text-anchor="start" x="402.5" y="-175.3" font-family="Times,serif" font-size="14.00" fill="#000000">index</text>
<polyline fill="none" stroke="#000000" points="394.5,-167.5 527.5,-167.5 "/>
<polyline fill="none" stroke="#000000" points="394.5,-143.5 527.5,-143.5 "/>
<text text-anchor="start" x="402.5" y="-128.3" font-family="Times,serif" font-size="14.00" fill="#000000">_layout</text>
</g>
<!-- ApplicationController&#45;&gt;HomeController -->
<g id="edge3" class="edge">
<title>ApplicationController&#45;&gt;HomeController</title>
<path fill="none" stroke="#000000" d="M609.7512,-416.551C583.9131,-397.6335 557.1289,-374.5896 537,-349 508.8074,-313.1591 488.9252,-265.2515 476.5862,-228.7016"/>
</g>
<!-- PostsController -->
<g id="node5" class="node">
<title>PostsController</title>
<path fill="none" stroke="#000000" d="M558,-113C558,-113 662,-113 662,-113 668,-113 674,-119 674,-125 674,-125 674,-224 674,-224 674,-230 668,-236 662,-236 662,-236 558,-236 558,-236 552,-236 546,-230 546,-224 546,-224 546,-125 546,-125 546,-119 552,-113 558,-113"/>
<text text-anchor="middle" x="610" y="-220.8" font-family="Times,serif" font-size="14.00" fill="#000000">PostsController</text>
<polyline fill="none" stroke="#000000" points="546,-213 674,-213 "/>
<text text-anchor="start" x="554" y="-197.8" font-family="Times,serif" font-size="14.00" fill="#000000">create</text>
<text text-anchor="start" x="554" y="-182.8" font-family="Times,serif" font-size="14.00" fill="#000000">delete</text>
<text text-anchor="start" x="554" y="-167.8" font-family="Times,serif" font-size="14.00" fill="#000000">new</text>
<polyline fill="none" stroke="#000000" points="546,-160 674,-160 "/>
<polyline fill="none" stroke="#000000" points="546,-136 674,-136 "/>
<text text-anchor="start" x="554" y="-120.8" font-family="Times,serif" font-size="14.00" fill="#000000">_layout</text>
</g>
<!-- ApplicationController&#45;&gt;PostsController -->
<g id="edge4" class="edge">
<title>ApplicationController&#45;&gt;PostsController</title>
<path fill="none" stroke="#000000" d="M671.4709,-385.3596C657.6194,-337.8457 640.6107,-279.5019 627.9988,-236.2399"/>
</g>
<!-- ProductsController -->
<g id="node6" class="node">
<title>ProductsController</title>
<path fill="none" stroke="#000000" d="M704,-68C704,-68 860,-68 860,-68 866,-68 872,-74 872,-80 872,-80 872,-269 872,-269 872,-275 866,-281 860,-281 860,-281 704,-281 704,-281 698,-281 692,-275 692,-269 692,-269 692,-80 692,-80 692,-74 698,-68 704,-68"/>
<text text-anchor="middle" x="782" y="-265.8" font-family="Times,serif" font-size="14.00" fill="#000000">ProductsController</text>
<polyline fill="none" stroke="#000000" points="692,-258 872,-258 "/>
<text text-anchor="start" x="700" y="-242.8" font-family="Times,serif" font-size="14.00" fill="#000000">create</text>
<text text-anchor="start" x="700" y="-227.8" font-family="Times,serif" font-size="14.00" fill="#000000">index</text>
<text text-anchor="start" x="700" y="-212.8" font-family="Times,serif" font-size="14.00" fill="#000000">load_fields</text>
<text text-anchor="start" x="700" y="-197.8" font-family="Times,serif" font-size="14.00" fill="#000000">new</text>
<text text-anchor="start" x="700" y="-182.8" font-family="Times,serif" font-size="14.00" fill="#000000">show</text>
<text text-anchor="start" x="700" y="-167.8" font-family="Times,serif" font-size="14.00" fill="#000000">update</text>
<text text-anchor="start" x="700" y="-152.8" font-family="Times,serif" font-size="14.00" fill="#000000">update_product</text>
<polyline fill="none" stroke="#000000" points="692,-145 872,-145 "/>
<polyline fill="none" stroke="#000000" points="692,-121 872,-121 "/>
<text text-anchor="start" x="700" y="-105.8" font-family="Times,serif" font-size="14.00" fill="#000000">_layout</text>
<text text-anchor="start" x="700" y="-90.8" font-family="Times,serif" font-size="14.00" fill="#000000">is_correct_extra_fields</text>
<text text-anchor="start" x="700" y="-75.8" font-family="Times,serif" font-size="14.00" fill="#000000">is_field_valid?</text>
</g>
<!-- ApplicationController&#45;&gt;ProductsController -->
<g id="edge5" class="edge">
<title>ApplicationController&#45;&gt;ProductsController</title>
<path fill="none" stroke="#000000" d="M720.5291,-385.3596C729.9868,-352.9173 740.9165,-315.4261 750.9134,-281.1341"/>
</g>
<!-- ShopsController -->
<g id="node7" class="node">
<title>ShopsController</title>
<path fill="none" stroke="#000000" d="M902,-75.5C902,-75.5 1012,-75.5 1012,-75.5 1018,-75.5 1024,-81.5 1024,-87.5 1024,-87.5 1024,-261.5 1024,-261.5 1024,-267.5 1018,-273.5 1012,-273.5 1012,-273.5 902,-273.5 902,-273.5 896,-273.5 890,-267.5 890,-261.5 890,-261.5 890,-87.5 890,-87.5 890,-81.5 896,-75.5 902,-75.5"/>
<text text-anchor="middle" x="957" y="-258.3" font-family="Times,serif" font-size="14.00" fill="#000000">ShopsController</text>
<polyline fill="none" stroke="#000000" points="890,-250.5 1024,-250.5 "/>
<text text-anchor="start" x="898" y="-235.3" font-family="Times,serif" font-size="14.00" fill="#000000">all</text>
<text text-anchor="start" x="898" y="-220.3" font-family="Times,serif" font-size="14.00" fill="#000000">create</text>
<text text-anchor="start" x="898" y="-205.3" font-family="Times,serif" font-size="14.00" fill="#000000">create_addr</text>
<text text-anchor="start" x="898" y="-190.3" font-family="Times,serif" font-size="14.00" fill="#000000">dashboard</text>
<text text-anchor="start" x="898" y="-175.3" font-family="Times,serif" font-size="14.00" fill="#000000">index</text>
<text text-anchor="start" x="898" y="-160.3" font-family="Times,serif" font-size="14.00" fill="#000000">new</text>
<text text-anchor="start" x="898" y="-145.3" font-family="Times,serif" font-size="14.00" fill="#000000">profile</text>
<text text-anchor="start" x="898" y="-130.3" font-family="Times,serif" font-size="14.00" fill="#000000">update</text>
<polyline fill="none" stroke="#000000" points="890,-122.5 1024,-122.5 "/>
<polyline fill="none" stroke="#000000" points="890,-98.5 1024,-98.5 "/>
<text text-anchor="start" x="898" y="-83.3" font-family="Times,serif" font-size="14.00" fill="#000000">_layout</text>
</g>
<!-- ApplicationController&#45;&gt;ShopsController -->
<g id="edge6" class="edge">
<title>ApplicationController&#45;&gt;ShopsController</title>
<path fill="none" stroke="#000000" d="M782.2533,-427.4867C816.4731,-407.4786 854.017,-380.8983 881,-349 899.5664,-327.0515 914.291,-299.8674 925.6407,-273.5413"/>
</g>
<!-- UsersController -->
<g id="node8" class="node">
<title>UsersController</title>
<path fill="none" stroke="#000000" d="M1054,-.5C1054,-.5 1174,-.5 1174,-.5 1180,-.5 1186,-6.5 1186,-12.5 1186,-12.5 1186,-336.5 1186,-336.5 1186,-342.5 1180,-348.5 1174,-348.5 1174,-348.5 1054,-348.5 1054,-348.5 1048,-348.5 1042,-342.5 1042,-336.5 1042,-336.5 1042,-12.5 1042,-12.5 1042,-6.5 1048,-.5 1054,-.5"/>
<text text-anchor="middle" x="1114" y="-333.3" font-family="Times,serif" font-size="14.00" fill="#000000">UsersController</text>
<polyline fill="none" stroke="#000000" points="1042,-325.5 1186,-325.5 "/>
<text text-anchor="start" x="1050" y="-310.3" font-family="Times,serif" font-size="14.00" fill="#000000">change_mail</text>
<text text-anchor="start" x="1050" y="-295.3" font-family="Times,serif" font-size="14.00" fill="#000000">confirm</text>
<text text-anchor="start" x="1050" y="-280.3" font-family="Times,serif" font-size="14.00" fill="#000000">create</text>
<text text-anchor="start" x="1050" y="-265.3" font-family="Times,serif" font-size="14.00" fill="#000000">exit</text>
<text text-anchor="start" x="1050" y="-250.3" font-family="Times,serif" font-size="14.00" fill="#000000">password_change</text>
<text text-anchor="start" x="1050" y="-235.3" font-family="Times,serif" font-size="14.00" fill="#000000">profile</text>
<text text-anchor="start" x="1050" y="-220.3" font-family="Times,serif" font-size="14.00" fill="#000000">profile_change</text>
<text text-anchor="start" x="1050" y="-205.3" font-family="Times,serif" font-size="14.00" fill="#000000">registration</text>
<text text-anchor="start" x="1050" y="-190.3" font-family="Times,serif" font-size="14.00" fill="#000000">require_login</text>
<text text-anchor="start" x="1050" y="-175.3" font-family="Times,serif" font-size="14.00" fill="#000000">restore</text>
<text text-anchor="start" x="1050" y="-160.3" font-family="Times,serif" font-size="14.00" fill="#000000">restore_link</text>
<text text-anchor="start" x="1050" y="-145.3" font-family="Times,serif" font-size="14.00" fill="#000000">restore_link_post</text>
<text text-anchor="start" x="1050" y="-130.3" font-family="Times,serif" font-size="14.00" fill="#000000">restore_mail</text>
<text text-anchor="start" x="1050" y="-115.3" font-family="Times,serif" font-size="14.00" fill="#000000">restore_mobile</text>
<text text-anchor="start" x="1050" y="-100.3" font-family="Times,serif" font-size="14.00" fill="#000000">sign_in</text>
<text text-anchor="start" x="1050" y="-85.3" font-family="Times,serif" font-size="14.00" fill="#000000">sign_in_post</text>
<text text-anchor="start" x="1050" y="-70.3" font-family="Times,serif" font-size="14.00" fill="#000000">update_mail</text>
<polyline fill="none" stroke="#000000" points="1042,-62.5 1186,-62.5 "/>
<polyline fill="none" stroke="#000000" points="1042,-38.5 1186,-38.5 "/>
<text text-anchor="start" x="1050" y="-23.3" font-family="Times,serif" font-size="14.00" fill="#000000">_layout</text>
<text text-anchor="start" x="1050" y="-8.3" font-family="Times,serif" font-size="14.00" fill="#000000">fill_cart</text>
</g>
<!-- ApplicationController&#45;&gt;UsersController -->
<g id="edge7" class="edge">
<title>ApplicationController&#45;&gt;UsersController</title>
<path fill="none" stroke="#000000" d="M782.0281,-457.7311C856.4727,-443.5129 962.899,-412.9835 1033,-349 1036.0836,-346.1855 1039.0593,-343.2297 1041.9301,-340.1533"/>
</g>
<!-- WishesController -->
<g id="node9" class="node">
<title>WishesController</title>
<path fill="none" stroke="#000000" d="M1216,-113C1216,-113 1334,-113 1334,-113 1340,-113 1346,-119 1346,-125 1346,-125 1346,-224 1346,-224 1346,-230 1340,-236 1334,-236 1334,-236 1216,-236 1216,-236 1210,-236 1204,-230 1204,-224 1204,-224 1204,-125 1204,-125 1204,-119 1210,-113 1216,-113"/>
<text text-anchor="middle" x="1275" y="-220.8" font-family="Times,serif" font-size="14.00" fill="#000000">WishesController</text>
<polyline fill="none" stroke="#000000" points="1204,-213 1346,-213 "/>
<text text-anchor="start" x="1212" y="-197.8" font-family="Times,serif" font-size="14.00" fill="#000000">add</text>
<text text-anchor="start" x="1212" y="-182.8" font-family="Times,serif" font-size="14.00" fill="#000000">delete</text>
<text text-anchor="start" x="1212" y="-167.8" font-family="Times,serif" font-size="14.00" fill="#000000">index</text>
<polyline fill="none" stroke="#000000" points="1204,-160 1346,-160 "/>
<polyline fill="none" stroke="#000000" points="1204,-136 1346,-136 "/>
<text text-anchor="start" x="1212" y="-120.8" font-family="Times,serif" font-size="14.00" fill="#000000">_layout</text>
</g>
<!-- ApplicationController&#45;&gt;WishesController -->
<g id="edge8" class="edge">
<title>ApplicationController&#45;&gt;WishesController</title>
<path fill="none" stroke="#000000" d="M782.063,-457.9255C907.5265,-439.5499 1132.5255,-400.4514 1195,-349 1229.4726,-320.6098 1249.7757,-274.1299 1261.2979,-236.2765"/>
</g>
</g>
</svg>
