<?xml version="1.0" encoding="UTF-8" standalone="no"?>
<!DOCTYPE svg PUBLIC "-//W3C//DTD SVG 1.1//EN"
 "http://www.w3.org/Graphics/SVG/1.1/DTD/svg11.dtd">
<!-- Generated by graphviz version 2.40.1 (20161225.0304)
 -->
<!-- Title: models_diagram Pages: 1 -->
<svg width="1622pt" height="1362pt"
 viewBox="0.00 0.00 1622.27 1362.00" xmlns="http://www.w3.org/2000/svg" xmlns:xlink="http://www.w3.org/1999/xlink">
<g id="graph0" class="graph" transform="scale(1 1) rotate(0) translate(4 1358)">
<title>models_diagram</title>
<polygon fill="transparent" stroke="transparent" points="-4,4 -4,-1358 1618.2738,-1358 1618.2738,4 -4,4"/>
<!-- Address -->
<g id="node1" class="node">
<title>Address</title>
<path fill="none" stroke="#000000" d="M56.8696,-203.5C56.8696,-203.5 367.8696,-203.5 367.8696,-203.5 373.8696,-203.5 379.8696,-209.5 379.8696,-215.5 379.8696,-215.5 379.8696,-402.5 379.8696,-402.5 379.8696,-408.5 373.8696,-414.5 367.8696,-414.5 367.8696,-414.5 56.8696,-414.5 56.8696,-414.5 50.8696,-414.5 44.8696,-408.5 44.8696,-402.5 44.8696,-402.5 44.8696,-215.5 44.8696,-215.5 44.8696,-209.5 50.8696,-203.5 56.8696,-203.5"/>
<text text-anchor="middle" x="212.3696" y="-399.3" font-family="Times,serif" font-size="14.00" fill="#000000">Address</text>
<polyline fill="none" stroke="#000000" points="44.8696,-391.5 379.8696,-391.5 "/>
<text text-anchor="start" x="52.8696" y="-376.3" font-family="Times,serif" font-size="14.00" fill="#000000">id :bigint</text>
<text text-anchor="start" x="52.8696" y="-361.3" font-family="Times,serif" font-size="14.00" fill="#000000">city :character varying</text>
<text text-anchor="start" x="52.8696" y="-346.3" font-family="Times,serif" font-size="14.00" fill="#000000">street :character varying</text>
<text text-anchor="start" x="52.8696" y="-331.3" font-family="Times,serif" font-size="14.00" fill="#000000">state :character varying</text>
<text text-anchor="start" x="52.8696" y="-316.3" font-family="Times,serif" font-size="14.00" fill="#000000">country :character varying</text>
<text text-anchor="start" x="52.8696" y="-301.3" font-family="Times,serif" font-size="14.00" fill="#000000">zip :character varying</text>
<text text-anchor="start" x="52.8696" y="-286.3" font-family="Times,serif" font-size="14.00" fill="#000000">suburb :character varying</text>
<text text-anchor="start" x="52.8696" y="-271.3" font-family="Times,serif" font-size="14.00" fill="#000000">county :character varying</text>
<text text-anchor="start" x="52.8696" y="-256.3" font-family="Times,serif" font-size="14.00" fill="#000000">shop_id :integer</text>
<text text-anchor="start" x="52.8696" y="-241.3" font-family="Times,serif" font-size="14.00" fill="#000000">created_at :timestamp(6) without time zone</text>
<text text-anchor="start" x="52.8696" y="-226.3" font-family="Times,serif" font-size="14.00" fill="#000000">updated_at :timestamp(6) without time zone</text>
<text text-anchor="start" x="52.8696" y="-211.3" font-family="Times,serif" font-size="14.00" fill="#000000">order_id :integer</text>
</g>
<!-- ApplicationRecord -->
<g id="node2" class="node">
<title>ApplicationRecord</title>
<ellipse fill="none" stroke="#000000" cx="871.3696" cy="-1255.5" rx="96.6831" ry="18"/>
<text text-anchor="middle" x="871.3696" y="-1251.8" font-family="Times,serif" font-size="14.00" fill="#000000">ApplicationRecord</text>
</g>
<!-- ApplicationRecord&#45;&gt;Address -->
<g id="edge1" class="edge">
<title>ApplicationRecord&#45;&gt;Address</title>
<path fill="none" stroke="#000000" d="M790.1726,-1245.5192C708.494,-1231.3808 583.9758,-1198.0264 507.3696,-1121 311.0406,-923.594 244.3258,-585.5427 222.4826,-414.5988"/>
</g>
<!-- Cart -->
<g id="node4" class="node">
<title>Cart</title>
<path fill="none" stroke="#000000" d="M1192.8696,-8C1192.8696,-8 1503.8696,-8 1503.8696,-8 1509.8696,-8 1515.8696,-14 1515.8696,-20 1515.8696,-20 1515.8696,-132 1515.8696,-132 1515.8696,-138 1509.8696,-144 1503.8696,-144 1503.8696,-144 1192.8696,-144 1192.8696,-144 1186.8696,-144 1180.8696,-138 1180.8696,-132 1180.8696,-132 1180.8696,-20 1180.8696,-20 1180.8696,-14 1186.8696,-8 1192.8696,-8"/>
<text text-anchor="middle" x="1348.3696" y="-128.8" font-family="Times,serif" font-size="14.00" fill="#000000">Cart</text>
<polyline fill="none" stroke="#000000" points="1180.8696,-121 1515.8696,-121 "/>
<text text-anchor="start" x="1188.8696" y="-105.8" font-family="Times,serif" font-size="14.00" fill="#000000">id :bigint</text>
<text text-anchor="start" x="1188.8696" y="-90.8" font-family="Times,serif" font-size="14.00" fill="#000000">product_id :integer</text>
<text text-anchor="start" x="1188.8696" y="-75.8" font-family="Times,serif" font-size="14.00" fill="#000000">user_id :integer</text>
<text text-anchor="start" x="1188.8696" y="-60.8" font-family="Times,serif" font-size="14.00" fill="#000000">quantity :integer</text>
<text text-anchor="start" x="1188.8696" y="-45.8" font-family="Times,serif" font-size="14.00" fill="#000000">uuid :character varying</text>
<text text-anchor="start" x="1188.8696" y="-30.8" font-family="Times,serif" font-size="14.00" fill="#000000">created_at :timestamp(6) without time zone</text>
<text text-anchor="start" x="1188.8696" y="-15.8" font-family="Times,serif" font-size="14.00" fill="#000000">updated_at :timestamp(6) without time zone</text>
</g>
<!-- ApplicationRecord&#45;&gt;Cart -->
<g id="edge2" class="edge">
<title>ApplicationRecord&#45;&gt;Cart</title>
<path fill="none" stroke="#000000" d="M884.2424,-1237.4788C901.9964,-1214.2423 936.3788,-1174.7197 976.3696,-1157 1067.0761,-1116.8086 1342.938,-1181.7576 1421.3696,-1121 1656.9272,-938.5236 1638.9238,-754.4903 1564.3696,-466 1532.7546,-343.6646 1453.6236,-218.759 1400.4344,-144.3096"/>
</g>
<!-- Category -->
<g id="node5" class="node">
<title>Category</title>
<path fill="none" stroke="#000000" d="M1035.8696,-864.5C1035.8696,-864.5 1346.8696,-864.5 1346.8696,-864.5 1352.8696,-864.5 1358.8696,-870.5 1358.8696,-876.5 1358.8696,-876.5 1358.8696,-988.5 1358.8696,-988.5 1358.8696,-994.5 1352.8696,-1000.5 1346.8696,-1000.5 1346.8696,-1000.5 1035.8696,-1000.5 1035.8696,-1000.5 1029.8696,-1000.5 1023.8696,-994.5 1023.8696,-988.5 1023.8696,-988.5 1023.8696,-876.5 1023.8696,-876.5 1023.8696,-870.5 1029.8696,-864.5 1035.8696,-864.5"/>
<text text-anchor="middle" x="1191.3696" y="-985.3" font-family="Times,serif" font-size="14.00" fill="#000000">Category</text>
<polyline fill="none" stroke="#000000" points="1023.8696,-977.5 1358.8696,-977.5 "/>
<text text-anchor="start" x="1031.8696" y="-962.3" font-family="Times,serif" font-size="14.00" fill="#000000">id :bigint</text>
<text text-anchor="start" x="1031.8696" y="-947.3" font-family="Times,serif" font-size="14.00" fill="#000000">created_at :timestamp(6) without time zone</text>
<text text-anchor="start" x="1031.8696" y="-932.3" font-family="Times,serif" font-size="14.00" fill="#000000">updated_at :timestamp(6) without time zone</text>
<text text-anchor="start" x="1031.8696" y="-917.3" font-family="Times,serif" font-size="14.00" fill="#000000">name :character varying</text>
<text text-anchor="start" x="1031.8696" y="-902.3" font-family="Times,serif" font-size="14.00" fill="#000000">data :character varying</text>
<text text-anchor="start" x="1031.8696" y="-887.3" font-family="Times,serif" font-size="14.00" fill="#000000">ancestry :character varying</text>
<text text-anchor="start" x="1031.8696" y="-872.3" font-family="Times,serif" font-size="14.00" fill="#000000">is_template :boolean</text>
</g>
<!-- ApplicationRecord&#45;&gt;Category -->
<g id="edge5" class="edge">
<title>ApplicationRecord&#45;&gt;Category</title>
<path fill="none" stroke="#000000" d="M890.2806,-1237.7718C927.7791,-1202.6103 1008.4676,-1126.9069 1014.3696,-1121 1053.3974,-1081.9397 1095.7824,-1036.8986 1129.289,-1000.641"/>
</g>
<!-- Maker -->
<g id="node6" class="node">
<title>Maker</title>
<path fill="none" stroke="#000000" d="M1231.8696,-534C1231.8696,-534 1542.8696,-534 1542.8696,-534 1548.8696,-534 1554.8696,-540 1554.8696,-546 1554.8696,-546 1554.8696,-628 1554.8696,-628 1554.8696,-634 1548.8696,-640 1542.8696,-640 1542.8696,-640 1231.8696,-640 1231.8696,-640 1225.8696,-640 1219.8696,-634 1219.8696,-628 1219.8696,-628 1219.8696,-546 1219.8696,-546 1219.8696,-540 1225.8696,-534 1231.8696,-534"/>
<text text-anchor="middle" x="1387.3696" y="-624.8" font-family="Times,serif" font-size="14.00" fill="#000000">Maker</text>
<polyline fill="none" stroke="#000000" points="1219.8696,-617 1554.8696,-617 "/>
<text text-anchor="start" x="1227.8696" y="-601.8" font-family="Times,serif" font-size="14.00" fill="#000000">id :bigint</text>
<text text-anchor="start" x="1227.8696" y="-586.8" font-family="Times,serif" font-size="14.00" fill="#000000">name :character varying</text>
<text text-anchor="start" x="1227.8696" y="-571.8" font-family="Times,serif" font-size="14.00" fill="#000000">created_at :timestamp(6) without time zone</text>
<text text-anchor="start" x="1227.8696" y="-556.8" font-family="Times,serif" font-size="14.00" fill="#000000">updated_at :timestamp(6) without time zone</text>
<text text-anchor="start" x="1227.8696" y="-541.8" font-family="Times,serif" font-size="14.00" fill="#000000">is_another :boolean</text>
</g>
<!-- ApplicationRecord&#45;&gt;Maker -->
<g id="edge7" class="edge">
<title>ApplicationRecord&#45;&gt;Maker</title>
<path fill="none" stroke="#000000" d="M884.2721,-1237.5453C902.0589,-1214.3825 936.4777,-1174.9411 976.3696,-1157 1055.9483,-1121.21 1307.3702,-1184.3541 1367.3696,-1121 1492.085,-989.3116 1437.981,-747.3307 1405.443,-640.3118"/>
</g>
<!-- Order -->
<g id="node7" class="node">
<title>Order</title>
<path fill="none" stroke="#000000" d="M409.8696,-504C409.8696,-504 720.8696,-504 720.8696,-504 726.8696,-504 732.8696,-510 732.8696,-516 732.8696,-516 732.8696,-658 732.8696,-658 732.8696,-664 726.8696,-670 720.8696,-670 720.8696,-670 409.8696,-670 409.8696,-670 403.8696,-670 397.8696,-664 397.8696,-658 397.8696,-658 397.8696,-516 397.8696,-516 397.8696,-510 403.8696,-504 409.8696,-504"/>
<text text-anchor="middle" x="565.3696" y="-654.8" font-family="Times,serif" font-size="14.00" fill="#000000">Order</text>
<polyline fill="none" stroke="#000000" points="397.8696,-647 732.8696,-647 "/>
<text text-anchor="start" x="405.8696" y="-631.8" font-family="Times,serif" font-size="14.00" fill="#000000">id :bigint</text>
<text text-anchor="start" x="405.8696" y="-616.8" font-family="Times,serif" font-size="14.00" fill="#000000">user_id :integer</text>
<text text-anchor="start" x="405.8696" y="-601.8" font-family="Times,serif" font-size="14.00" fill="#000000">name :character varying</text>
<text text-anchor="start" x="405.8696" y="-586.8" font-family="Times,serif" font-size="14.00" fill="#000000">surname :character varying</text>
<text text-anchor="start" x="405.8696" y="-571.8" font-family="Times,serif" font-size="14.00" fill="#000000">phone :character varying</text>
<text text-anchor="start" x="405.8696" y="-556.8" font-family="Times,serif" font-size="14.00" fill="#000000">email :character varying</text>
<text text-anchor="start" x="405.8696" y="-541.8" font-family="Times,serif" font-size="14.00" fill="#000000">shop_id :integer</text>
<text text-anchor="start" x="405.8696" y="-526.8" font-family="Times,serif" font-size="14.00" fill="#000000">created_at :timestamp(6) without time zone</text>
<text text-anchor="start" x="405.8696" y="-511.8" font-family="Times,serif" font-size="14.00" fill="#000000">updated_at :timestamp(6) without time zone</text>
</g>
<!-- ApplicationRecord&#45;&gt;Order -->
<g id="edge11" class="edge">
<title>ApplicationRecord&#45;&gt;Order</title>
<path fill="none" stroke="#000000" d="M793.9173,-1244.5777C722.3175,-1229.9381 619.7703,-1196.407 570.3696,-1121 480.824,-984.3143 512.2085,-782.7224 540.4527,-670.3861"/>
</g>
<!-- Wish -->
<g id="node13" class="node">
<title>Wish</title>
<path fill="none" stroke="#000000" d="M486.8696,-23C486.8696,-23 797.8696,-23 797.8696,-23 803.8696,-23 809.8696,-29 809.8696,-35 809.8696,-35 809.8696,-117 809.8696,-117 809.8696,-123 803.8696,-129 797.8696,-129 797.8696,-129 486.8696,-129 486.8696,-129 480.8696,-129 474.8696,-123 474.8696,-117 474.8696,-117 474.8696,-35 474.8696,-35 474.8696,-29 480.8696,-23 486.8696,-23"/>
<text text-anchor="middle" x="642.3696" y="-113.8" font-family="Times,serif" font-size="14.00" fill="#000000">Wish</text>
<polyline fill="none" stroke="#000000" points="474.8696,-106 809.8696,-106 "/>
<text text-anchor="start" x="482.8696" y="-90.8" font-family="Times,serif" font-size="14.00" fill="#000000">id :bigint</text>
<text text-anchor="start" x="482.8696" y="-75.8" font-family="Times,serif" font-size="14.00" fill="#000000">user_id :integer</text>
<text text-anchor="start" x="482.8696" y="-60.8" font-family="Times,serif" font-size="14.00" fill="#000000">product_id :integer</text>
<text text-anchor="start" x="482.8696" y="-45.8" font-family="Times,serif" font-size="14.00" fill="#000000">created_at :timestamp(6) without time zone</text>
<text text-anchor="start" x="482.8696" y="-30.8" font-family="Times,serif" font-size="14.00" fill="#000000">updated_at :timestamp(6) without time zone</text>
</g>
<!-- ApplicationRecord&#45;&gt;Wish -->
<g id="edge19" class="edge">
<title>ApplicationRecord&#45;&gt;Wish</title>
<path fill="none" stroke="#000000" d="M788.7589,-1245.991C647.0288,-1228.1394 365.688,-1185.4983 292.3696,-1121 46.3512,-904.5771 93.398,-752.4851 35.3696,-430 16.3219,-324.1445 -33.4386,-270.6658 35.3696,-188 90.3427,-121.9557 314.6605,-94.7049 474.5714,-83.5618"/>
</g>
<!-- Attribute -->
<g id="node3" class="node">
<title>Attribute</title>
<path fill="none" stroke="#000000" d="M997.8696,-1157.5C997.8696,-1157.5 1308.8696,-1157.5 1308.8696,-1157.5 1314.8696,-1157.5 1320.8696,-1163.5 1320.8696,-1169.5 1320.8696,-1169.5 1320.8696,-1341.5 1320.8696,-1341.5 1320.8696,-1347.5 1314.8696,-1353.5 1308.8696,-1353.5 1308.8696,-1353.5 997.8696,-1353.5 997.8696,-1353.5 991.8696,-1353.5 985.8696,-1347.5 985.8696,-1341.5 985.8696,-1341.5 985.8696,-1169.5 985.8696,-1169.5 985.8696,-1163.5 991.8696,-1157.5 997.8696,-1157.5"/>
<text text-anchor="middle" x="1153.3696" y="-1338.3" font-family="Times,serif" font-size="14.00" fill="#000000">Attribute</text>
<polyline fill="none" stroke="#000000" points="985.8696,-1330.5 1320.8696,-1330.5 "/>
<text text-anchor="start" x="993.8696" y="-1315.3" font-family="Times,serif" font-size="14.00" fill="#000000">id :bigint</text>
<text text-anchor="start" x="993.8696" y="-1300.3" font-family="Times,serif" font-size="14.00" fill="#000000">name :character varying</text>
<text text-anchor="start" x="993.8696" y="-1285.3" font-family="Times,serif" font-size="14.00" fill="#000000">text :character varying</text>
<text text-anchor="start" x="993.8696" y="-1270.3" font-family="Times,serif" font-size="14.00" fill="#000000">num :double precision</text>
<text text-anchor="start" x="993.8696" y="-1255.3" font-family="Times,serif" font-size="14.00" fill="#000000">product_id :integer</text>
<text text-anchor="start" x="993.8696" y="-1240.3" font-family="Times,serif" font-size="14.00" fill="#000000">created_at :timestamp(6) without time zone</text>
<text text-anchor="start" x="993.8696" y="-1225.3" font-family="Times,serif" font-size="14.00" fill="#000000">updated_at :timestamp(6) without time zone</text>
<text text-anchor="start" x="993.8696" y="-1210.3" font-family="Times,serif" font-size="14.00" fill="#000000">check :boolean</text>
<text text-anchor="start" x="993.8696" y="-1195.3" font-family="Times,serif" font-size="14.00" fill="#000000">type_name :character varying</text>
<text text-anchor="start" x="993.8696" y="-1180.3" font-family="Times,serif" font-size="14.00" fill="#000000">hint :character varying</text>
<text text-anchor="start" x="993.8696" y="-1165.3" font-family="Times,serif" font-size="14.00" fill="#000000">code :integer</text>
</g>
<!-- Category&#45;&gt;Maker -->
<g id="edge4" class="edge">
<title>Category&#45;&gt;Maker</title>
<path fill="none" stroke="#dc4f9c" d="M1235.2297,-855.1855C1270.4844,-793.0401 1319.362,-706.8808 1352.1106,-649.153"/>
<polygon fill="#dc4f9c" stroke="#dc4f9c" points="1235.0272,-855.5424 1226.1789,-862.0199 1232.5601,-859.8914 1230.0929,-864.2403 1230.0929,-864.2403 1230.0929,-864.2403 1232.5601,-859.8914 1234.007,-866.4608 1235.0272,-855.5424 1235.0272,-855.5424"/>
<polygon fill="#dc4f9c" stroke="#dc4f9c" points="1352.2892,-648.8381 1361.1376,-642.3606 1354.7564,-644.4892 1357.2235,-640.1402 1357.2235,-640.1402 1357.2235,-640.1402 1354.7564,-644.4892 1353.3095,-637.9198 1352.2892,-648.8381 1352.2892,-648.8381"/>
</g>
<!-- Product -->
<g id="node10" class="node">
<title>Product</title>
<path fill="none" stroke="#000000" d="M839.8696,-188.5C839.8696,-188.5 1150.8696,-188.5 1150.8696,-188.5 1156.8696,-188.5 1162.8696,-194.5 1162.8696,-200.5 1162.8696,-200.5 1162.8696,-417.5 1162.8696,-417.5 1162.8696,-423.5 1156.8696,-429.5 1150.8696,-429.5 1150.8696,-429.5 839.8696,-429.5 839.8696,-429.5 833.8696,-429.5 827.8696,-423.5 827.8696,-417.5 827.8696,-417.5 827.8696,-200.5 827.8696,-200.5 827.8696,-194.5 833.8696,-188.5 839.8696,-188.5"/>
<text text-anchor="middle" x="995.3696" y="-414.3" font-family="Times,serif" font-size="14.00" fill="#000000">Product</text>
<polyline fill="none" stroke="#000000" points="827.8696,-406.5 1162.8696,-406.5 "/>
<text text-anchor="start" x="835.8696" y="-391.3" font-family="Times,serif" font-size="14.00" fill="#000000">id :bigint</text>
<text text-anchor="start" x="835.8696" y="-376.3" font-family="Times,serif" font-size="14.00" fill="#000000">title :character varying</text>
<text text-anchor="start" x="835.8696" y="-361.3" font-family="Times,serif" font-size="14.00" fill="#000000">price :double precision</text>
<text text-anchor="start" x="835.8696" y="-346.3" font-family="Times,serif" font-size="14.00" fill="#000000">maker_name :character varying</text>
<text text-anchor="start" x="835.8696" y="-331.3" font-family="Times,serif" font-size="14.00" fill="#000000">custom_maker :boolean</text>
<text text-anchor="start" x="835.8696" y="-316.3" font-family="Times,serif" font-size="14.00" fill="#000000">created_at :timestamp(6) without time zone</text>
<text text-anchor="start" x="835.8696" y="-301.3" font-family="Times,serif" font-size="14.00" fill="#000000">updated_at :timestamp(6) without time zone</text>
<text text-anchor="start" x="835.8696" y="-286.3" font-family="Times,serif" font-size="14.00" fill="#000000">category_id :integer</text>
<text text-anchor="start" x="835.8696" y="-271.3" font-family="Times,serif" font-size="14.00" fill="#000000">maker_id :integer</text>
<text text-anchor="start" x="835.8696" y="-256.3" font-family="Times,serif" font-size="14.00" fill="#000000">shop_id :integer</text>
<text text-anchor="start" x="835.8696" y="-241.3" font-family="Times,serif" font-size="14.00" fill="#000000">description :text</text>
<text text-anchor="start" x="835.8696" y="-226.3" font-family="Times,serif" font-size="14.00" fill="#000000">quantity :integer</text>
<text text-anchor="start" x="835.8696" y="-211.3" font-family="Times,serif" font-size="14.00" fill="#000000">is_inf_quantity :boolean</text>
<text text-anchor="start" x="835.8696" y="-196.3" font-family="Times,serif" font-size="14.00" fill="#000000">mark :double precision</text>
</g>
<!-- Category&#45;&gt;Product -->
<g id="edge3" class="edge">
<title>Category&#45;&gt;Product</title>
<path fill="none" stroke="#a2e667" d="M1195.3212,-856.1171C1197.3148,-760.5856 1190.9105,-594.028 1133.3696,-466 1129.142,-456.5936 1124.1525,-447.3408 1118.6222,-438.3236"/>
<ellipse fill="none" stroke="#a2e667" cx="1195.2219" cy="-860.2875" rx="4" ry="4"/>
<polygon fill="#a2e667" stroke="#a2e667" points="1118.535,-438.1867 1116.9567,-427.335 1115.8483,-433.9699 1113.1616,-429.7531 1113.1616,-429.7531 1113.1616,-429.7531 1115.8483,-433.9699 1109.3664,-432.1711 1118.535,-438.1867 1118.535,-438.1867"/>
</g>
<!-- Maker&#45;&gt;Product -->
<g id="edge6" class="edge">
<title>Maker&#45;&gt;Product</title>
<path fill="none" stroke="#37f2e8" d="M1305.7065,-529.0858C1266.6949,-501.4194 1218.3909,-467.1631 1171.6046,-433.983"/>
<ellipse fill="none" stroke="#37f2e8" cx="1308.9891" cy="-531.4138" rx="4" ry="4"/>
<polygon fill="#37f2e8" stroke="#37f2e8" points="1171.353,-433.8046 1165.7992,-424.3491 1167.2745,-430.9122 1163.196,-428.0197 1163.196,-428.0197 1163.196,-428.0197 1167.2745,-430.9122 1160.5929,-431.6904 1171.353,-433.8046 1171.353,-433.8046"/>
</g>
<!-- Order&#45;&gt;Address -->
<g id="edge8" class="edge">
<title>Order&#45;&gt;Address</title>
<path fill="none" stroke="#3a2769" d="M453.6224,-498.9951C421.697,-473.8527 386.4901,-446.1261 353.0707,-419.8071"/>
<ellipse fill="none" stroke="#3a2769" cx="456.7936" cy="-501.4926" rx="4" ry="4"/>
<ellipse fill="#3a2769" stroke="#3a2769" cx="349.5547" cy="-417.0381" rx="4" ry="4"/>
</g>
<!-- OrderedProduct -->
<g id="node8" class="node">
<title>OrderedProduct</title>
<path fill="none" stroke="#000000" d="M409.8696,-218.5C409.8696,-218.5 720.8696,-218.5 720.8696,-218.5 726.8696,-218.5 732.8696,-224.5 732.8696,-230.5 732.8696,-230.5 732.8696,-387.5 732.8696,-387.5 732.8696,-393.5 726.8696,-399.5 720.8696,-399.5 720.8696,-399.5 409.8696,-399.5 409.8696,-399.5 403.8696,-399.5 397.8696,-393.5 397.8696,-387.5 397.8696,-387.5 397.8696,-230.5 397.8696,-230.5 397.8696,-224.5 403.8696,-218.5 409.8696,-218.5"/>
<text text-anchor="middle" x="565.3696" y="-384.3" font-family="Times,serif" font-size="14.00" fill="#000000">OrderedProduct</text>
<polyline fill="none" stroke="#000000" points="397.8696,-376.5 732.8696,-376.5 "/>
<text text-anchor="start" x="405.8696" y="-361.3" font-family="Times,serif" font-size="14.00" fill="#000000">id :bigint</text>
<text text-anchor="start" x="405.8696" y="-346.3" font-family="Times,serif" font-size="14.00" fill="#000000">order_id :integer</text>
<text text-anchor="start" x="405.8696" y="-331.3" font-family="Times,serif" font-size="14.00" fill="#000000">product_id :integer</text>
<text text-anchor="start" x="405.8696" y="-316.3" font-family="Times,serif" font-size="14.00" fill="#000000">quantity :integer</text>
<text text-anchor="start" x="405.8696" y="-301.3" font-family="Times,serif" font-size="14.00" fill="#000000">data :text</text>
<text text-anchor="start" x="405.8696" y="-286.3" font-family="Times,serif" font-size="14.00" fill="#000000">title :character varying</text>
<text text-anchor="start" x="405.8696" y="-271.3" font-family="Times,serif" font-size="14.00" fill="#000000">description :text</text>
<text text-anchor="start" x="405.8696" y="-256.3" font-family="Times,serif" font-size="14.00" fill="#000000">price :double precision</text>
<text text-anchor="start" x="405.8696" y="-241.3" font-family="Times,serif" font-size="14.00" fill="#000000">created_at :timestamp(6) without time zone</text>
<text text-anchor="start" x="405.8696" y="-226.3" font-family="Times,serif" font-size="14.00" fill="#000000">updated_at :timestamp(6) without time zone</text>
</g>
<!-- Order&#45;&gt;OrderedProduct -->
<g id="edge9" class="edge">
<title>Order&#45;&gt;OrderedProduct</title>
<path fill="none" stroke="#f46a3f" d="M565.3696,-495.8001C565.3696,-468.3664 565.3696,-438.104 565.3696,-410.0704"/>
<ellipse fill="none" stroke="#f46a3f" cx="565.3697" cy="-499.9674" rx="4" ry="4"/>
<polygon fill="#f46a3f" stroke="#f46a3f" points="565.3697,-409.8525 569.8696,-399.8525 565.3697,-404.8525 565.3696,-399.8525 565.3696,-399.8525 565.3696,-399.8525 565.3697,-404.8525 560.8696,-399.8525 565.3697,-409.8525 565.3697,-409.8525"/>
</g>
<!-- Order&#45;&gt;Product -->
<g id="edge10" class="edge">
<title>Order&#45;&gt;Product</title>
<path fill="none" stroke="#b0be71" d="M702.2504,-498.505C739.3463,-474.5221 780.0331,-448.2176 818.9732,-423.0424"/>
<polygon fill="#b0be71" stroke="#b0be71" points="702.1992,-498.5381 691.3582,-500.1884 698.0003,-501.2527 693.8014,-503.9674 693.8014,-503.9674 693.8014,-503.9674 698.0003,-501.2527 696.2446,-507.7464 702.1992,-498.5381 702.1992,-498.5381"/>
<polygon fill="#b0be71" stroke="#b0be71" points="819.3782,-422.7805 830.2192,-421.1302 823.5771,-420.0659 827.776,-417.3512 827.776,-417.3512 827.776,-417.3512 823.5771,-420.0659 825.3328,-413.5722 819.3782,-422.7805 819.3782,-422.7805"/>
</g>
<!-- Post -->
<g id="node9" class="node">
<title>Post</title>
<path fill="none" stroke="#000000" d="M839.8696,-.5C839.8696,-.5 1150.8696,-.5 1150.8696,-.5 1156.8696,-.5 1162.8696,-6.5 1162.8696,-12.5 1162.8696,-12.5 1162.8696,-139.5 1162.8696,-139.5 1162.8696,-145.5 1156.8696,-151.5 1150.8696,-151.5 1150.8696,-151.5 839.8696,-151.5 839.8696,-151.5 833.8696,-151.5 827.8696,-145.5 827.8696,-139.5 827.8696,-139.5 827.8696,-12.5 827.8696,-12.5 827.8696,-6.5 833.8696,-.5 839.8696,-.5"/>
<text text-anchor="middle" x="995.3696" y="-136.3" font-family="Times,serif" font-size="14.00" fill="#000000">Post</text>
<polyline fill="none" stroke="#000000" points="827.8696,-128.5 1162.8696,-128.5 "/>
<text text-anchor="start" x="835.8696" y="-113.3" font-family="Times,serif" font-size="14.00" fill="#000000">id :bigint</text>
<text text-anchor="start" x="835.8696" y="-98.3" font-family="Times,serif" font-size="14.00" fill="#000000">user_id :integer</text>
<text text-anchor="start" x="835.8696" y="-83.3" font-family="Times,serif" font-size="14.00" fill="#000000">product_id :integer</text>
<text text-anchor="start" x="835.8696" y="-68.3" font-family="Times,serif" font-size="14.00" fill="#000000">body :text</text>
<text text-anchor="start" x="835.8696" y="-53.3" font-family="Times,serif" font-size="14.00" fill="#000000">mark :integer</text>
<text text-anchor="start" x="835.8696" y="-38.3" font-family="Times,serif" font-size="14.00" fill="#000000">created_at :timestamp(6) without time zone</text>
<text text-anchor="start" x="835.8696" y="-23.3" font-family="Times,serif" font-size="14.00" fill="#000000">updated_at :timestamp(6) without time zone</text>
<text text-anchor="start" x="835.8696" y="-8.3" font-family="Times,serif" font-size="14.00" fill="#000000">ancestry :character varying</text>
</g>
<!-- Product&#45;&gt;Cart -->
<g id="edge13" class="edge">
<title>Product&#45;&gt;Cart</title>
<path fill="none" stroke="#0024c3" d="M1169.7446,-193.0342C1172.3031,-191.3442 1174.846,-189.6653 1177.3696,-188 1196.0763,-175.6557 1215.9601,-162.5857 1235.3018,-149.8994"/>
<ellipse fill="none" stroke="#0024c3" cx="1166.2755" cy="-195.3267" rx="4" ry="4"/>
<polygon fill="#0024c3" stroke="#0024c3" points="1235.4847,-149.7795 1246.3148,-148.0594 1239.666,-147.0378 1243.8473,-144.2962 1243.8473,-144.2962 1243.8473,-144.2962 1239.666,-147.0378 1241.3798,-140.533 1235.4847,-149.7795 1235.4847,-149.7795"/>
</g>
<!-- Product&#45;&gt;Post -->
<g id="edge12" class="edge">
<title>Product&#45;&gt;Post</title>
<path fill="none" stroke="#94fca6" d="M995.3696,-180.1858C995.3696,-173.9336 995.3696,-167.7293 995.3696,-161.646"/>
<ellipse fill="none" stroke="#94fca6" cx="995.3697" cy="-184.405" rx="4" ry="4"/>
<polygon fill="#94fca6" stroke="#94fca6" points="995.3697,-161.5353 999.8696,-151.5352 995.3697,-156.5353 995.3696,-151.5353 995.3696,-151.5353 995.3696,-151.5353 995.3697,-156.5353 990.8696,-151.5353 995.3697,-161.5353 995.3697,-161.5353"/>
</g>
<!-- Product&#45;&gt;Wish -->
<g id="edge14" class="edge">
<title>Product&#45;&gt;Wish</title>
<path fill="none" stroke="#ecf588" d="M820.8149,-193.784C789.7993,-173.312 758.7036,-152.787 731.3594,-134.7383"/>
<ellipse fill="none" stroke="#ecf588" cx="824.3186" cy="-196.0966" rx="4" ry="4"/>
<polygon fill="#ecf588" stroke="#ecf588" points="731.3439,-134.7281 725.477,-125.4636 727.1709,-131.9737 722.998,-129.2193 722.998,-129.2193 722.998,-129.2193 727.1709,-131.9737 720.519,-132.9749 731.3439,-134.7281 731.3439,-134.7281"/>
</g>
<!-- Shop -->
<g id="node11" class="node">
<title>Shop</title>
<path fill="none" stroke="#000000" d="M801.8696,-466.5C801.8696,-466.5 1112.8696,-466.5 1112.8696,-466.5 1118.8696,-466.5 1124.8696,-472.5 1124.8696,-478.5 1124.8696,-478.5 1124.8696,-695.5 1124.8696,-695.5 1124.8696,-701.5 1118.8696,-707.5 1112.8696,-707.5 1112.8696,-707.5 801.8696,-707.5 801.8696,-707.5 795.8696,-707.5 789.8696,-701.5 789.8696,-695.5 789.8696,-695.5 789.8696,-478.5 789.8696,-478.5 789.8696,-472.5 795.8696,-466.5 801.8696,-466.5"/>
<text text-anchor="middle" x="957.3696" y="-692.3" font-family="Times,serif" font-size="14.00" fill="#000000">Shop</text>
<polyline fill="none" stroke="#000000" points="789.8696,-684.5 1124.8696,-684.5 "/>
<text text-anchor="start" x="797.8696" y="-669.3" font-family="Times,serif" font-size="14.00" fill="#000000">id :bigint</text>
<text text-anchor="start" x="797.8696" y="-654.3" font-family="Times,serif" font-size="14.00" fill="#000000">name :character varying</text>
<text text-anchor="start" x="797.8696" y="-639.3" font-family="Times,serif" font-size="14.00" fill="#000000">created_at :timestamp(6) without time zone</text>
<text text-anchor="start" x="797.8696" y="-624.3" font-family="Times,serif" font-size="14.00" fill="#000000">updated_at :timestamp(6) without time zone</text>
<text text-anchor="start" x="797.8696" y="-609.3" font-family="Times,serif" font-size="14.00" fill="#000000">top_cat :character varying</text>
<text text-anchor="start" x="797.8696" y="-594.3" font-family="Times,serif" font-size="14.00" fill="#000000">mail :character varying</text>
<text text-anchor="start" x="797.8696" y="-579.3" font-family="Times,serif" font-size="14.00" fill="#000000">description :text</text>
<text text-anchor="start" x="797.8696" y="-564.3" font-family="Times,serif" font-size="14.00" fill="#000000">phone :character varying</text>
<text text-anchor="start" x="797.8696" y="-549.3" font-family="Times,serif" font-size="14.00" fill="#000000">user_id :integer</text>
<text text-anchor="start" x="797.8696" y="-534.3" font-family="Times,serif" font-size="14.00" fill="#000000">inn :character varying</text>
<text text-anchor="start" x="797.8696" y="-519.3" font-family="Times,serif" font-size="14.00" fill="#000000">vk :character varying</text>
<text text-anchor="start" x="797.8696" y="-504.3" font-family="Times,serif" font-size="14.00" fill="#000000">fb :character varying</text>
<text text-anchor="start" x="797.8696" y="-489.3" font-family="Times,serif" font-size="14.00" fill="#000000">tg :character varying</text>
<text text-anchor="start" x="797.8696" y="-474.3" font-family="Times,serif" font-size="14.00" fill="#000000">wu :character varying</text>
</g>
<!-- User -->
<g id="node12" class="node">
<title>User</title>
<path fill="none" stroke="#000000" d="M591.3696,-744.5C591.3696,-744.5 993.3696,-744.5 993.3696,-744.5 999.3696,-744.5 1005.3696,-750.5 1005.3696,-756.5 1005.3696,-756.5 1005.3696,-1108.5 1005.3696,-1108.5 1005.3696,-1114.5 999.3696,-1120.5 993.3696,-1120.5 993.3696,-1120.5 591.3696,-1120.5 591.3696,-1120.5 585.3696,-1120.5 579.3696,-1114.5 579.3696,-1108.5 579.3696,-1108.5 579.3696,-756.5 579.3696,-756.5 579.3696,-750.5 585.3696,-744.5 591.3696,-744.5"/>
<text text-anchor="middle" x="792.3696" y="-1105.3" font-family="Times,serif" font-size="14.00" fill="#000000">User</text>
<polyline fill="none" stroke="#000000" points="579.3696,-1097.5 1005.3696,-1097.5 "/>
<text text-anchor="start" x="587.3696" y="-1082.3" font-family="Times,serif" font-size="14.00" fill="#000000">id :bigint</text>
<text text-anchor="start" x="587.3696" y="-1067.3" font-family="Times,serif" font-size="14.00" fill="#000000">email :character varying</text>
<text text-anchor="start" x="587.3696" y="-1052.3" font-family="Times,serif" font-size="14.00" fill="#000000">phone :character varying</text>
<text text-anchor="start" x="587.3696" y="-1037.3" font-family="Times,serif" font-size="14.00" fill="#000000">name :character varying</text>
<text text-anchor="start" x="587.3696" y="-1022.3" font-family="Times,serif" font-size="14.00" fill="#000000">surname :character varying</text>
<text text-anchor="start" x="587.3696" y="-1007.3" font-family="Times,serif" font-size="14.00" fill="#000000">password_digest :character varying</text>
<text text-anchor="start" x="587.3696" y="-992.3" font-family="Times,serif" font-size="14.00" fill="#000000">created_at :timestamp(6) without time zone</text>
<text text-anchor="start" x="587.3696" y="-977.3" font-family="Times,serif" font-size="14.00" fill="#000000">updated_at :timestamp(6) without time zone</text>
<text text-anchor="start" x="587.3696" y="-962.3" font-family="Times,serif" font-size="14.00" fill="#000000">restore_date :timestamp without time zone</text>
<text text-anchor="start" x="587.3696" y="-947.3" font-family="Times,serif" font-size="14.00" fill="#000000">street :character varying</text>
<text text-anchor="start" x="587.3696" y="-932.3" font-family="Times,serif" font-size="14.00" fill="#000000">city :character varying</text>
<text text-anchor="start" x="587.3696" y="-917.3" font-family="Times,serif" font-size="14.00" fill="#000000">state :character varying</text>
<text text-anchor="start" x="587.3696" y="-902.3" font-family="Times,serif" font-size="14.00" fill="#000000">country :character varying</text>
<text text-anchor="start" x="587.3696" y="-887.3" font-family="Times,serif" font-size="14.00" fill="#000000">zip :integer</text>
<text text-anchor="start" x="587.3696" y="-872.3" font-family="Times,serif" font-size="14.00" fill="#000000">suburb :character varying</text>
<text text-anchor="start" x="587.3696" y="-857.3" font-family="Times,serif" font-size="14.00" fill="#000000">county :character varying</text>
<text text-anchor="start" x="587.3696" y="-842.3" font-family="Times,serif" font-size="14.00" fill="#000000">restore_code :character varying</text>
<text text-anchor="start" x="587.3696" y="-827.3" font-family="Times,serif" font-size="14.00" fill="#000000">restore_code_task_started :timestamp without time zone</text>
<text text-anchor="start" x="587.3696" y="-812.3" font-family="Times,serif" font-size="14.00" fill="#000000">confirmed :boolean</text>
<text text-anchor="start" x="587.3696" y="-797.3" font-family="Times,serif" font-size="14.00" fill="#000000">email_temp :character varying</text>
<text text-anchor="start" x="587.3696" y="-782.3" font-family="Times,serif" font-size="14.00" fill="#000000">email_temp_code :character varying</text>
<text text-anchor="start" x="587.3696" y="-767.3" font-family="Times,serif" font-size="14.00" fill="#000000">change_code_task_started :timestamp without time zone</text>
<text text-anchor="start" x="587.3696" y="-752.3" font-family="Times,serif" font-size="14.00" fill="#000000">third_name :character varying</text>
</g>
<!-- User&#45;&gt;Cart -->
<g id="edge16" class="edge">
<title>User&#45;&gt;Cart</title>
<path fill="none" stroke="#6482fe" d="M1012.4034,-745.078C1013.0587,-744.7165 1013.7141,-744.3572 1014.3696,-744 1062.8913,-717.5637 1094.0196,-746.7919 1133.3696,-708 1213.7479,-628.7618 1174.4286,-572.9935 1210.3696,-466 1246.8871,-357.2905 1291.5364,-232.4707 1319.9675,-153.9272"/>
<ellipse fill="none" stroke="#6482fe" cx="1008.8765" cy="-747.0658" rx="4" ry="4"/>
<polygon fill="#6482fe" stroke="#6482fe" points="1320.1185,-153.5102 1327.7556,-145.6408 1321.8216,-148.8091 1323.5246,-144.1081 1323.5246,-144.1081 1323.5246,-144.1081 1321.8216,-148.8091 1319.2937,-142.5754 1320.1185,-153.5102 1320.1185,-153.5102"/>
</g>
<!-- User&#45;&gt;Order -->
<g id="edge18" class="edge">
<title>User&#45;&gt;Order</title>
<path fill="none" stroke="#8a951a" d="M664.1571,-737.3571C650.8864,-717.1588 637.8887,-697.3759 625.9061,-679.1382"/>
<ellipse fill="none" stroke="#8a951a" cx="666.5433" cy="-740.9891" rx="4" ry="4"/>
<polygon fill="#8a951a" stroke="#8a951a" points="625.5997,-678.6717 623.8695,-667.8432 622.8542,-674.4929 620.1086,-670.3142 620.1086,-670.3142 620.1086,-670.3142 622.8542,-674.4929 616.3477,-672.7851 625.5997,-678.6717 625.5997,-678.6717"/>
</g>
<!-- User&#45;&gt;Shop -->
<g id="edge15" class="edge">
<title>User&#45;&gt;Shop</title>
<path fill="none" stroke="#72179d" d="M885.814,-736.8332C888.9532,-730.2598 892.071,-723.7314 895.1486,-717.2872"/>
<ellipse fill="none" stroke="#72179d" cx="883.9566" cy="-740.7226" rx="4" ry="4"/>
<polygon fill="#72179d" stroke="#72179d" points="895.3172,-716.934 903.6874,-709.8495 897.4719,-712.4221 899.6267,-707.9102 899.6267,-707.9102 899.6267,-707.9102 897.4719,-712.4221 895.566,-705.9709 895.3172,-716.934 895.3172,-716.934"/>
</g>
<!-- User&#45;&gt;Wish -->
<g id="edge17" class="edge">
<title>User&#45;&gt;Wish</title>
<path fill="none" stroke="#793b55" d="M780.4329,-735.7559C767.0832,-519.4565 746.6367,-200.5935 741.3696,-188 733.6952,-169.6506 721.7428,-152.2498 708.7618,-136.8742"/>
<ellipse fill="none" stroke="#793b55" cx="780.6981" cy="-740.0556" rx="4" ry="4"/>
<polygon fill="#793b55" stroke="#793b55" points="708.4798,-136.5518 705.2844,-126.0617 705.1884,-132.7879 701.8969,-129.024 701.8969,-129.024 701.8969,-129.024 705.1884,-132.7879 698.5095,-131.9863 708.4798,-136.5518 708.4798,-136.5518"/>
</g>
</g>
</svg>
