<svg width="36" height="27" viewBox="0 0 36 27" fill="none" xmlns="http://www.w3.org/2000/svg">
<path d="M23.524 26H16.468L7.072 11.816V26H0.0160001V0.619998H7.072L16.468 14.984V0.619998H23.524V26Z" fill="#333333"/>
<path d="M30.9633 26.288C29.7153 26.288 28.7073 25.952 27.9393 25.28C27.1953 24.584 26.8233 23.708 26.8233 22.652C26.8233 21.596 27.1953 20.72 27.9393 20.024C28.7073 19.328 29.7153 18.98 30.9633 18.98C32.1873 18.98 33.1713 19.328 33.9153 20.024C34.6833 20.72 35.0673 21.596 35.0673 22.652C35.0673 23.684 34.6833 24.548 33.9153 25.244C33.1713 25.94 32.1873 26.288 30.9633 26.288Z" fill="#F7941D"/>
</svg>
