<svg width="216" height="28" viewBox="0 0 216 28" fill="none" xmlns="http://www.w3.org/2000/svg">
<path d="M23.524 27H16.468L7.072 12.816V27H0.0160001V1.62H7.072L16.468 15.984V1.62H23.524V27ZM46.8393 16.668C46.8393 17.22 46.8033 17.772 46.7313 18.324H33.3753C33.4473 19.428 33.7473 20.256 34.2753 20.808C34.8273 21.336 35.5233 21.6 36.3633 21.6C37.5393 21.6 38.3793 21.072 38.8833 20.016H46.4073C46.0953 21.408 45.4833 22.656 44.5713 23.76C43.6833 24.84 42.5553 25.692 41.1873 26.316C39.8193 26.94 38.3073 27.252 36.6513 27.252C34.6593 27.252 32.8833 26.832 31.3233 25.992C29.7873 25.152 28.5753 23.952 27.6873 22.392C26.8233 20.832 26.3913 18.996 26.3913 16.884C26.3913 14.772 26.8233 12.948 27.6873 11.412C28.5513 9.852 29.7513 8.652 31.2873 7.812C32.8473 6.972 34.6353 6.552 36.6513 6.552C38.6433 6.552 40.4073 6.96 41.9433 7.776C43.4793 8.592 44.6793 9.768 45.5433 11.304C46.4073 12.816 46.8393 14.604 46.8393 16.668ZM39.6393 14.904C39.6393 14.04 39.3513 13.368 38.7753 12.888C38.1993 12.384 37.4793 12.132 36.6153 12.132C35.7513 12.132 35.0433 12.372 34.4913 12.852C33.9393 13.308 33.5793 13.992 33.4113 14.904H39.6393ZM62.3629 27L56.7829 18.72V27H49.7269V0.36H56.7829V14.724L62.3629 6.804H70.8229L62.8669 16.956L70.9669 27H62.3629Z" fill="#333333"/>
<path d="M102.664 1.62V27H95.6075V12.996L90.8195 27H84.9155L80.0915 12.888V27H73.0355V1.62H81.5675L87.9395 18.108L94.1675 1.62H102.664ZM211.315 27.288C210.067 27.288 209.059 26.952 208.291 26.28C207.547 25.584 207.175 24.708 207.175 23.652C207.175 22.596 207.547 21.72 208.291 21.024C209.059 20.328 210.067 19.98 211.315 19.98C212.539 19.98 213.523 20.328 214.267 21.024C215.035 21.72 215.419 22.596 215.419 23.652C215.419 24.684 215.035 25.548 214.267 26.244C213.523 26.94 212.539 27.288 211.315 27.288Z" fill="#F7941D"/>
<path d="M105.528 16.884C105.528 14.796 105.9 12.972 106.644 11.412C107.412 9.852 108.444 8.652 109.74 7.812C111.06 6.972 112.524 6.552 114.132 6.552C115.524 6.552 116.724 6.828 117.732 7.38C118.74 7.932 119.52 8.676 120.072 9.612V6.804H127.128V27H120.072V24.192C119.52 25.128 118.728 25.872 117.696 26.424C116.688 26.976 115.5 27.252 114.132 27.252C112.524 27.252 111.06 26.832 109.74 25.992C108.444 25.152 107.412 23.952 106.644 22.392C105.9 20.808 105.528 18.972 105.528 16.884ZM120.072 16.884C120.072 15.588 119.712 14.568 118.992 13.824C118.296 13.08 117.432 12.708 116.4 12.708C115.344 12.708 114.468 13.08 113.772 13.824C113.076 14.544 112.728 15.564 112.728 16.884C112.728 18.18 113.076 19.212 113.772 19.98C114.468 20.724 115.344 21.096 116.4 21.096C117.432 21.096 118.296 20.724 118.992 19.98C119.712 19.236 120.072 18.204 120.072 16.884ZM138.205 10.368C138.997 9.216 139.957 8.304 141.085 7.632C142.213 6.96 143.425 6.624 144.721 6.624V14.148H142.741C141.205 14.148 140.065 14.448 139.321 15.048C138.577 15.648 138.205 16.692 138.205 18.18V27H131.149V6.804H138.205V10.368ZM159.886 27L154.306 18.72V27H147.25V0.36H154.306V14.724L159.886 6.804H168.346L160.39 16.956L168.49 27H159.886ZM189.855 16.668C189.855 17.22 189.819 17.772 189.747 18.324H176.391C176.463 19.428 176.763 20.256 177.291 20.808C177.843 21.336 178.539 21.6 179.379 21.6C180.555 21.6 181.395 21.072 181.899 20.016H189.423C189.111 21.408 188.499 22.656 187.587 23.76C186.699 24.84 185.571 25.692 184.203 26.316C182.835 26.94 181.323 27.252 179.667 27.252C177.675 27.252 175.899 26.832 174.339 25.992C172.803 25.152 171.591 23.952 170.703 22.392C169.839 20.832 169.407 18.996 169.407 16.884C169.407 14.772 169.839 12.948 170.703 11.412C171.567 9.852 172.767 8.652 174.303 7.812C175.863 6.972 177.651 6.552 179.667 6.552C181.659 6.552 183.423 6.96 184.959 7.776C186.495 8.592 187.695 9.768 188.559 11.304C189.423 12.816 189.855 14.604 189.855 16.668ZM182.655 14.904C182.655 14.04 182.367 13.368 181.791 12.888C181.215 12.384 180.495 12.132 179.631 12.132C178.767 12.132 178.059 12.372 177.507 12.852C176.955 13.308 176.595 13.992 176.427 14.904H182.655ZM204.659 20.988V27H201.599C196.439 27 193.859 24.444 193.859 19.332V12.672H191.375V6.804H193.859V1.908H200.951V6.804H204.623V12.672H200.951V19.44C200.951 19.992 201.071 20.388 201.311 20.628C201.575 20.868 202.007 20.988 202.607 20.988H204.659Z" fill="black"/>
</svg>
